<svg width="337" height="62" viewBox="0 0 337 62" fill="none" xmlns="http://www.w3.org/2000/svg">
<path fill-rule="evenodd" clip-rule="evenodd" d="M9.88259 25.6521C7.55684 28.683 11.6263 26.6624 8.1389 32.7242C7.55808 34.7448 5.81315 38.2803 4.65027 39.7952L5.81315 40.8055C5.81315 40.8055 5.81315 40.8055 6.3952 41.3112C6.97602 41.8158 7.55808 41.8158 8.1389 42.3215C8.1389 43.3317 7.55808 43.8364 6.97602 44.342C6.3952 41.8158 8.1389 43.3317 5.23233 42.3215C4.65151 45.8569 3.48863 47.8775 2.90657 51.413C2.32575 55.9588 1.16288 56.4645 0 60H50C50 54.4439 43.024 31.7139 40.6982 25.1475L37.7916 27.1681V26.6635C36.6288 28.6841 39.5353 24.1383 31.9773 25.1486C27.9078 25.6543 28.4886 25.6543 25 25.1486C23.8371 25.1486 10.4647 25.6543 9.88384 25.6532L9.88259 25.6521ZM18.0215 33.2288L14.5329 50.4027C13.37 53.9382 10.4622 52.9279 5.22985 52.9279L10.4622 53.4325C12.2071 53.4325 13.9508 53.4325 15.6945 52.9279C19.1831 52.9279 22.0897 52.9279 25.5783 52.9279C40.1124 53.9382 31.9735 54.9485 45.3448 54.4428L46.5076 56.968C47.0897 55.9577 47.0897 55.9577 47.0897 53.9372C44.7639 53.4315 41.8574 53.9372 38.9508 53.4325C35.4622 53.4325 34.8814 53.4325 34.8814 50.4017C37.2071 50.9073 34.8814 50.4017 37.2071 51.412L39.5329 46.3616C34.3005 45.8559 37.7892 45.8559 35.4634 48.3821C33.1377 46.8672 33.7197 36.2597 32.5568 33.2288H18.0215V33.2288Z" fill="#F79421"/>
<path fill-rule="evenodd" clip-rule="evenodd" d="M291.65 39.8406C292.232 40.8487 293.976 41.3522 295.139 42.3603C295.139 43.8719 295.139 43.3684 293.976 44.3764C293.394 41.8568 295.72 43.3684 292.232 42.3603C291.65 46.3926 290.489 47.9042 289.907 51.4319C289.907 55.9677 288.744 56.4723 287 60H337C337 54.4561 330.024 30.768 327.698 25.2241C324.791 25.7287 327.116 25.2241 324.791 27.2402V26.7367C321.885 23.209 320.141 26.2322 314.326 25.7287C309.676 25.2241 305.605 26.2322 301.536 25.7287C292.815 24.7206 298.047 26.7367 296.303 31.2725C295.14 33.7922 293.397 36.8164 291.652 39.8406H291.65ZM305.023 33.2887C303.279 38.8326 303.279 47.4007 300.954 52.44L293.976 53.448C297.465 53.9515 316.069 51.9365 321.883 54.4561C325.372 55.4642 328.279 54.9596 332.348 54.4561L333.511 56.9758C334.093 56.4712 333.511 57.9838 334.093 55.9677C334.674 53.9515 334.674 55.9677 334.093 53.9515C327.698 52.44 321.883 55.4631 322.466 50.9273H323.048C324.211 50.9273 323.63 52.4389 326.536 46.3915C321.304 45.3834 324.793 46.3915 322.467 48.9122C320.141 46.8961 320.723 38.328 320.141 35.3038C319.559 32.2795 317.234 33.2876 313.746 33.2876C312.002 33.2876 305.606 32.7841 305.024 33.2876L305.023 33.2887Z" fill="#F79421"/>
<path fill-rule="evenodd" clip-rule="evenodd" d="M183.128 8.46153C184.808 10.1538 188.168 12.6914 189.846 13.5385L188.166 22C190.686 21.1547 194.886 18.6154 196.566 18.6154C199.926 18.6154 203.286 21.1529 205.805 22L204.125 13.5385C205.805 12.6932 208.325 11.8462 210.005 10.1538C210.845 7.61628 210.845 10.1538 210.005 7.61628C197.405 6.77103 203.286 6.77103 197.405 0.00180239C195.725 1.69411 194.886 5.07873 193.206 5.92398C190.687 7.61628 185.647 7.61628 183.126 8.46153H183.128Z" fill="#F79421"/>
<path fill-rule="evenodd" clip-rule="evenodd" d="M118.453 8.46154C120.133 10.1538 124.332 12.6914 125.173 13.5385L124.332 22C126.851 21.1547 130.211 18.6154 131.891 18.6154C135.251 18.6154 138.611 21.1529 141.13 22L140.289 13.5385C141.13 12.6932 145.329 10.1538 146.169 8.46154C131.05 5.92398 138.609 5.92398 132.73 0C125.171 7.61448 133.57 5.92217 118.451 8.46154H118.453Z" fill="#F79421"/>
<path fill-rule="evenodd" clip-rule="evenodd" d="M151.21 8.46154C153.729 11.8462 155.409 10.9991 157.089 13.5385C157.928 16.076 156.248 18.6154 156.248 22C168.848 18.6154 159.608 16.9231 173.887 22C173.048 18.6154 171.368 16.0778 173.048 13.5385C174.728 11.0009 176.408 11.0009 178.927 8.46154C176.408 7.61448 172.207 7.61448 169.688 6.76923C168.008 5.92217 168.008 5.07692 167.169 3.38462C166.328 1.69231 168.008 3.38462 166.328 1.69231C164.648 0 166.328 0.847057 164.648 0C159.608 10.9991 159.608 5.07692 151.21 8.46154Z" fill="#F79421"/>
<path d="M71.856 56.224L75.6 36.096C75.7493 35.3707 75.952 34.784 76.208 34.336C76.4853 33.8667 76.8373 33.5253 77.264 33.312C77.712 33.0773 78.2453 32.96 78.864 32.96C79.2693 32.96 79.6427 33.024 79.984 33.152C80.3467 33.28 80.5813 33.4933 80.688 33.792C80.4107 34.0267 80.1653 34.3147 79.952 34.656C79.76 34.9973 79.5893 35.424 79.44 35.936C79.312 36.4267 79.1733 37.024 79.024 37.728L75.632 55.776L71.856 56.224ZM61.872 57.568C61.4667 57.568 61.0827 57.4933 60.72 57.344C60.3573 57.1947 60.1227 56.992 60.016 56.736C60.272 56.5653 60.496 56.352 60.688 56.096C60.88 55.84 61.04 55.52 61.168 55.136C61.3173 54.7307 61.4453 54.24 61.552 53.664L64.208 39.488C64.4 38.4853 64.688 37.6533 65.072 36.992C65.456 36.3307 65.968 35.8293 66.608 35.488C67.248 35.1253 68.0267 34.9227 68.944 34.88L65.136 54.368C64.9867 55.1147 64.7733 55.7227 64.496 56.192C64.24 56.6827 63.8987 57.0347 63.472 57.248C63.0453 57.4613 62.512 57.568 61.872 57.568ZM59.12 43.52C58.48 43.52 57.9253 43.3707 57.456 43.072C57.008 42.752 56.656 42.3147 56.4 41.76C56.144 41.2053 56.016 40.5547 56.016 39.808C56.016 38.784 56.2613 37.792 56.752 36.832C57.264 35.8507 58.032 35.0507 59.056 34.432C60.08 33.8133 61.3813 33.504 62.96 33.504C63.6213 33.504 64.2187 33.568 64.752 33.696C65.3067 33.8027 65.8187 33.952 66.288 34.144C66.7787 34.3147 67.2373 34.4747 67.664 34.624C68.0907 34.752 68.5067 34.8373 68.912 34.88L66.064 35.872L66 35.776C65.872 35.6907 65.648 35.5733 65.328 35.424C65.008 35.2747 64.4747 35.2 63.728 35.2C62.448 35.2 61.4453 35.5947 60.72 36.384C60.016 37.1733 59.664 38.272 59.664 39.68C59.664 40.2773 59.7387 40.864 59.888 41.44C60.0373 42.016 60.2613 42.5813 60.56 43.136C60.3467 43.264 60.112 43.36 59.856 43.424C59.6213 43.488 59.376 43.52 59.12 43.52ZM65.584 46.72L65.968 44.48H75.312L74.896 46.72H65.584Z" fill="#0F172A"/>
<path d="M86.002 56.64C84.8927 56.64 83.9753 56.4693 83.25 56.128C82.546 55.7867 81.9913 55.3387 81.586 54.784C81.1807 54.208 80.8927 53.5893 80.722 52.928C80.5727 52.2453 80.498 51.584 80.498 50.944C80.498 49.4933 80.6687 48.064 81.01 46.656C81.3727 45.248 81.9167 43.968 82.642 42.816C83.3887 41.664 84.3273 40.7467 85.458 40.064C86.61 39.3813 87.986 39.04 89.586 39.04C90.7167 39.04 91.634 39.2107 92.338 39.552C93.042 39.8933 93.5967 40.352 94.002 40.928C94.4287 41.4827 94.7167 42.1013 94.866 42.784C95.0153 43.4453 95.09 44.0853 95.09 44.704C95.09 46.1547 94.9087 47.5947 94.546 49.024C94.2047 50.432 93.6607 51.712 92.914 52.864C92.1887 54.016 91.25 54.9333 90.098 55.616C88.9673 56.2987 87.602 56.64 86.002 56.64ZM86.61 54.72C87.25 54.72 87.826 54.5067 88.338 54.08C88.85 53.6533 89.298 53.0773 89.682 52.352C90.066 51.6053 90.3753 50.784 90.61 49.888C90.866 48.9707 91.058 48.032 91.186 47.072C91.314 46.112 91.378 45.184 91.378 44.288C91.378 43.3067 91.2073 42.5067 90.866 41.888C90.5247 41.2693 89.906 40.96 89.01 40.96C88.37 40.96 87.7833 41.1733 87.25 41.6C86.7167 42.0267 86.258 42.6027 85.874 43.328C85.5113 44.0533 85.202 44.8747 84.946 45.792C84.69 46.688 84.498 47.6267 84.37 48.608C84.2633 49.568 84.21 50.496 84.21 51.392C84.21 52.352 84.3807 53.152 84.722 53.792C85.0847 54.4107 85.714 54.72 86.61 54.72Z" fill="#0F172A"/>
<path d="M100.412 56.672C99.8149 56.672 99.2922 56.48 98.8442 56.096C98.3962 55.712 98.1722 55.1573 98.1722 54.432C98.1722 54.0053 98.2362 53.408 98.3642 52.64C98.4922 51.8507 98.6416 51.0187 98.8122 50.144C98.9829 49.2693 99.1536 48.4373 99.3242 47.648C99.5162 46.8373 99.6549 46.1867 99.7402 45.696L100.668 41.12H98.3962L98.5242 40.16C99.5482 39.776 100.562 39.264 101.564 38.624C102.567 37.984 103.452 37.28 104.22 36.512H105.212L104.572 39.68H107.068L106.78 41.12H104.252L102.044 52C101.98 52.3413 101.927 52.6507 101.884 52.928C101.842 53.184 101.81 53.4293 101.788 53.664C101.767 54.24 101.874 54.6453 102.108 54.88C102.343 55.0933 102.77 55.136 103.388 55.008C103.196 55.4133 102.951 55.7333 102.652 55.968C102.375 56.2027 102.044 56.3733 101.66 56.48C101.276 56.608 100.86 56.672 100.412 56.672Z" fill="#0F172A"/>
<path d="M112.849 56.64C111.633 56.64 110.577 56.416 109.681 55.968C108.806 55.4987 108.134 54.7947 107.665 53.856C107.195 52.9173 106.961 51.7333 106.961 50.304C106.961 48.96 107.142 47.6267 107.505 46.304C107.889 44.96 108.454 43.744 109.201 42.656C109.947 41.568 110.897 40.6933 112.049 40.032C113.222 39.3707 114.598 39.04 116.177 39.04C117.009 39.04 117.755 39.1573 118.417 39.392C119.078 39.6267 119.601 40.0107 119.985 40.544C120.369 41.0773 120.561 41.8027 120.561 42.72C120.561 43.9573 120.187 45.0027 119.441 45.856C118.715 46.688 117.745 47.328 116.529 47.776C115.313 48.2027 113.969 48.416 112.497 48.416C112.219 48.416 111.91 48.416 111.569 48.416C111.249 48.3947 110.982 48.3733 110.769 48.352C110.747 48.6933 110.726 49.0347 110.705 49.376C110.683 49.696 110.673 49.9947 110.673 50.272C110.673 51.424 110.886 52.3307 111.313 52.992C111.739 53.632 112.518 53.952 113.649 53.952C114.566 53.952 115.387 53.7387 116.113 53.312C116.838 52.864 117.403 52.2347 117.809 51.424C118.107 51.5093 118.31 51.68 118.417 51.936C118.523 52.192 118.577 52.4587 118.577 52.736C118.577 53.376 118.353 53.9947 117.905 54.592C117.457 55.1893 116.806 55.68 115.953 56.064C115.099 56.448 114.065 56.64 112.849 56.64ZM110.993 46.784C111.718 46.784 112.433 46.7093 113.137 46.56C113.862 46.4107 114.523 46.176 115.121 45.856C115.718 45.5147 116.187 45.088 116.529 44.576C116.891 44.0427 117.073 43.424 117.073 42.72C117.073 42.1013 116.923 41.6427 116.625 41.344C116.347 41.024 115.942 40.864 115.409 40.864C114.811 40.864 114.257 41.056 113.745 41.44C113.254 41.8027 112.827 42.2827 112.465 42.88C112.102 43.4773 111.793 44.1173 111.537 44.8C111.302 45.4827 111.121 46.144 110.993 46.784Z" fill="#0F172A"/>
<path d="M123.698 56.64C123.015 56.64 122.471 56.448 122.066 56.064C121.682 55.68 121.49 55.1467 121.49 54.464C121.49 54.2293 121.511 53.952 121.554 53.632C121.596 53.312 121.65 52.9173 121.714 52.448C121.799 51.9787 121.916 51.392 122.066 50.688C122.215 49.984 122.386 49.1413 122.578 48.16C122.77 47.1787 123.004 46.016 123.282 44.672C123.559 43.328 123.879 41.792 124.242 40.064C124.455 38.848 124.636 37.664 124.786 36.512C124.935 35.3387 125.01 34.3573 125.01 33.568C125.01 33.312 124.999 33.088 124.978 32.896C124.956 32.6827 124.924 32.4907 124.882 32.32C125.095 32.192 125.351 32.0853 125.65 32C125.948 31.9147 126.258 31.872 126.578 31.872C127.132 31.872 127.644 32.0427 128.114 32.384C128.604 32.704 128.85 33.28 128.85 34.112C128.85 34.2827 128.807 34.624 128.722 35.136C128.636 35.648 128.53 36.2453 128.402 36.928C128.274 37.5893 128.135 38.2827 127.986 39.008C127.858 39.712 127.74 40.352 127.634 40.928C127.122 43.4027 126.706 45.4293 126.386 47.008C126.066 48.5653 125.81 49.792 125.618 50.688C125.447 51.584 125.319 52.2453 125.234 52.672C125.17 53.0987 125.127 53.3973 125.106 53.568C125.084 53.7387 125.074 53.888 125.074 54.016C125.074 54.336 125.148 54.592 125.298 54.784C125.468 54.976 125.714 55.0827 126.034 55.104C125.97 55.4667 125.81 55.7653 125.554 56C125.319 56.2133 125.042 56.3733 124.722 56.48C124.402 56.5867 124.06 56.64 123.698 56.64Z" fill="#0F172A"/>
<path d="M149.722 56L147.738 39.168L147.45 39.072L146.042 34.88H150.49L152.186 50.048H152.282L159.802 34.944H164.09L160.282 39.36L151.77 56H149.722ZM139.098 56.736C138.437 56.736 137.904 56.5547 137.498 56.192C137.114 55.8507 136.922 55.4347 136.922 54.944C136.922 54.7093 136.954 54.528 137.018 54.4C137.722 54.3787 138.352 54.2187 138.906 53.92C139.461 53.6213 139.973 53.1627 140.442 52.544C140.933 51.904 141.392 51.0827 141.818 50.08C142.266 49.056 142.704 47.8293 143.13 46.4C143.578 44.9707 144.037 43.296 144.506 41.376C144.997 39.456 145.541 37.2907 146.138 34.88L148.09 37.184C147.344 40.7253 146.629 43.68 145.946 46.048C145.285 48.416 144.645 50.3147 144.026 51.744C143.408 53.1733 142.821 54.24 142.266 54.944C141.712 55.648 141.168 56.1173 140.634 56.352C140.122 56.608 139.61 56.736 139.098 56.736ZM138.842 43.584C138.224 43.584 137.69 43.4453 137.242 43.168C136.794 42.8693 136.453 42.4533 136.218 41.92C136.005 41.3653 135.898 40.7253 135.898 40C135.898 39.2533 136.048 38.5173 136.346 37.792C136.645 37.0667 137.093 36.416 137.69 35.84C138.288 35.2427 139.024 34.7733 139.898 34.432C140.794 34.0693 141.85 33.888 143.066 33.888C143.984 33.888 144.837 33.9627 145.626 34.112C146.437 34.2613 147.226 34.4213 147.994 34.592C148.762 34.7413 149.562 34.8373 150.394 34.88L148.602 36.672L145.882 36.096L145.722 35.808C145.104 35.6373 144.41 35.552 143.642 35.552C142.384 35.552 141.392 35.936 140.666 36.704C139.941 37.472 139.568 38.592 139.546 40.064C139.546 40.6187 139.61 41.152 139.738 41.664C139.866 42.176 140.048 42.688 140.282 43.2C140.048 43.3493 139.802 43.456 139.546 43.52C139.312 43.5627 139.077 43.584 138.842 43.584ZM161.242 61.056C160.837 61.056 160.464 60.96 160.122 60.768C159.802 60.576 159.525 60.256 159.29 59.808C159.077 59.3813 158.906 58.7947 158.778 58.048C158.672 57.3227 158.629 56.4373 158.65 55.392C158.65 54.3253 158.704 52.9813 158.81 51.36C158.917 49.7387 159.098 47.8827 159.354 45.792C159.632 43.68 160.016 41.3867 160.506 38.912L160.346 38.72L159.834 34.944H164.314C164.101 36.1387 163.866 37.4827 163.61 38.976C163.354 40.4693 163.109 42.016 162.874 43.616C162.64 45.216 162.448 46.7947 162.298 48.352C162.149 49.9093 162.074 51.36 162.074 52.704C162.053 54.4107 162.16 55.8613 162.394 57.056C162.629 58.2507 163.002 59.1253 163.514 59.68C163.408 59.936 163.237 60.1707 163.002 60.384C162.768 60.5973 162.501 60.7573 162.202 60.864C161.904 60.992 161.584 61.056 161.242 61.056Z" fill="#0F172A"/>
<path d="M169.974 56.64C168.886 56.64 168.001 56.384 167.318 55.872C166.657 55.3387 166.166 54.624 165.846 53.728C165.548 52.8107 165.398 51.7653 165.398 50.592C165.398 49.0133 165.612 47.5307 166.038 46.144C166.465 44.736 167.073 43.4987 167.862 42.432C168.673 41.3653 169.612 40.5333 170.678 39.936C171.745 39.3387 172.918 39.04 174.198 39.04C175.244 39.04 176.342 39.264 177.494 39.712L180.726 39.296L178.166 52.672C178.145 52.864 178.113 53.088 178.07 53.344C178.028 53.6 178.006 53.824 178.006 54.016C178.006 54.336 178.081 54.592 178.23 54.784C178.401 54.976 178.657 55.0827 178.998 55.104C178.892 55.4667 178.71 55.7653 178.454 56C178.22 56.2133 177.942 56.3733 177.622 56.48C177.324 56.5867 176.982 56.64 176.598 56.64C176.022 56.64 175.532 56.48 175.126 56.16C174.721 55.8613 174.486 55.4133 174.422 54.816C173.868 55.3493 173.206 55.7867 172.438 56.128C171.692 56.4693 170.87 56.64 169.974 56.64ZM171.382 54.72C172.193 54.72 172.844 54.4533 173.334 53.92C173.846 53.3867 174.252 52.7253 174.55 51.936C174.849 51.1253 175.073 50.3467 175.222 49.6L176.63 41.952C176.204 41.6107 175.756 41.3653 175.286 41.216C174.838 41.0453 174.422 40.96 174.038 40.96C173.377 40.96 172.78 41.152 172.246 41.536C171.734 41.92 171.276 42.4427 170.87 43.104C170.486 43.7653 170.156 44.5333 169.878 45.408C169.622 46.2827 169.43 47.2213 169.302 48.224C169.174 49.2053 169.11 50.1973 169.11 51.2C169.11 52.1813 169.27 53.0133 169.59 53.696C169.91 54.3787 170.508 54.72 171.382 54.72Z" fill="#0F172A"/>
<path d="M194.081 56.64C193.42 56.64 192.887 56.448 192.481 56.064C192.097 55.7013 191.905 55.0933 191.905 54.24C191.905 53.7707 191.969 53.1627 192.097 52.416C192.247 51.6693 192.417 50.88 192.609 50.048C192.801 49.1947 192.993 48.352 193.185 47.52C193.377 46.688 193.537 45.9413 193.665 45.28C193.815 44.5973 193.889 44.064 193.889 43.68C193.889 42.976 193.708 42.4427 193.345 42.08C192.983 41.696 192.503 41.504 191.905 41.504C191.073 41.504 190.369 41.792 189.793 42.368C189.217 42.944 188.748 43.6693 188.385 44.544C188.023 45.3973 187.756 46.2507 187.585 47.104L185.857 56L182.209 56.384L185.473 39.68L188.513 39.296L188.129 42.176C188.705 41.152 189.473 40.3733 190.433 39.84C191.393 39.3067 192.407 39.04 193.473 39.04C194.775 39.04 195.767 39.3813 196.449 40.064C197.132 40.7253 197.473 41.664 197.473 42.88C197.473 43.4773 197.409 44.1707 197.281 44.96C197.153 45.7493 196.983 46.592 196.769 47.488C196.577 48.3627 196.385 49.216 196.193 50.048C196.001 50.88 195.831 51.6373 195.681 52.32C195.553 53.0027 195.489 53.536 195.489 53.92C195.489 54.24 195.553 54.5067 195.681 54.72C195.809 54.9333 196.065 55.0613 196.449 55.104C196.321 55.6373 196.033 56.0213 195.585 56.256C195.137 56.512 194.636 56.64 194.081 56.64Z" fill="#0F172A"/>
<path d="M204.38 56.64C203.292 56.64 202.407 56.384 201.724 55.872C201.063 55.3387 200.572 54.624 200.252 53.728C199.954 52.8107 199.804 51.7653 199.804 50.592C199.804 49.0133 200.018 47.5307 200.444 46.144C200.871 44.736 201.479 43.4987 202.268 42.432C203.079 41.3653 204.018 40.5333 205.084 39.936C206.151 39.3387 207.324 39.04 208.604 39.04C209.65 39.04 210.748 39.264 211.9 39.712L215.132 39.296L212.572 52.672C212.551 52.864 212.519 53.088 212.476 53.344C212.434 53.6 212.412 53.824 212.412 54.016C212.412 54.336 212.487 54.592 212.636 54.784C212.807 54.976 213.063 55.0827 213.404 55.104C213.298 55.4667 213.116 55.7653 212.86 56C212.626 56.2133 212.348 56.3733 212.028 56.48C211.73 56.5867 211.388 56.64 211.004 56.64C210.428 56.64 209.938 56.48 209.532 56.16C209.127 55.8613 208.892 55.4133 208.828 54.816C208.274 55.3493 207.612 55.7867 206.844 56.128C206.098 56.4693 205.276 56.64 204.38 56.64ZM205.788 54.72C206.599 54.72 207.25 54.4533 207.74 53.92C208.252 53.3867 208.658 52.7253 208.956 51.936C209.255 51.1253 209.479 50.3467 209.628 49.6L211.036 41.952C210.61 41.6107 210.162 41.3653 209.692 41.216C209.244 41.0453 208.828 40.96 208.444 40.96C207.783 40.96 207.186 41.152 206.652 41.536C206.14 41.92 205.682 42.4427 205.276 43.104C204.892 43.7653 204.562 44.5333 204.284 45.408C204.028 46.2827 203.836 47.2213 203.708 48.224C203.58 49.2053 203.516 50.1973 203.516 51.2C203.516 52.1813 203.676 53.0133 203.996 53.696C204.316 54.3787 204.914 54.72 205.788 54.72Z" fill="#0F172A"/>
<path d="M228.487 56.64C227.826 56.64 227.293 56.448 226.887 56.064C226.503 55.7013 226.311 55.0933 226.311 54.24C226.311 53.7707 226.375 53.1627 226.503 52.416C226.653 51.6693 226.823 50.88 227.015 50.048C227.207 49.1947 227.399 48.352 227.591 47.52C227.783 46.688 227.943 45.9413 228.071 45.28C228.221 44.5973 228.295 44.064 228.295 43.68C228.295 42.976 228.114 42.4427 227.751 42.08C227.389 41.696 226.909 41.504 226.311 41.504C225.479 41.504 224.775 41.792 224.199 42.368C223.623 42.944 223.154 43.6693 222.791 44.544C222.429 45.3973 222.162 46.2507 221.991 47.104L220.263 56L216.615 56.384L219.879 39.68L222.919 39.296L222.535 42.176C223.111 41.152 223.879 40.3733 224.839 39.84C225.799 39.3067 226.813 39.04 227.879 39.04C229.181 39.04 230.173 39.3813 230.855 40.064C231.538 40.7253 231.879 41.664 231.879 42.88C231.879 43.4773 231.815 44.1707 231.687 44.96C231.559 45.7493 231.389 46.592 231.175 47.488C230.983 48.3627 230.791 49.216 230.599 50.048C230.407 50.88 230.237 51.6373 230.087 52.32C229.959 53.0027 229.895 53.536 229.895 53.92C229.895 54.24 229.959 54.5067 230.087 54.72C230.215 54.9333 230.471 55.0613 230.855 55.104C230.727 55.6373 230.439 56.0213 229.991 56.256C229.543 56.512 229.042 56.64 228.487 56.64Z" fill="#0F172A"/>
<path d="M237.475 56.672C236.877 56.672 236.355 56.48 235.907 56.096C235.459 55.712 235.235 55.1573 235.235 54.432C235.235 54.0053 235.299 53.408 235.427 52.64C235.555 51.8507 235.704 51.0187 235.875 50.144C236.045 49.2693 236.216 48.4373 236.387 47.648C236.579 46.8373 236.717 46.1867 236.803 45.696L237.731 41.12H235.459L235.587 40.16C236.611 39.776 237.624 39.264 238.627 38.624C239.629 37.984 240.515 37.28 241.283 36.512H242.275L241.635 39.68H244.131L243.843 41.12H241.315L239.107 52C239.043 52.3413 238.989 52.6507 238.947 52.928C238.904 53.184 238.872 53.4293 238.851 53.664C238.829 54.24 238.936 54.6453 239.171 54.88C239.405 55.0933 239.832 55.136 240.451 55.008C240.259 55.4133 240.013 55.7333 239.715 55.968C239.437 56.2027 239.107 56.3733 238.723 56.48C238.339 56.608 237.923 56.672 237.475 56.672Z" fill="#0F172A"/>
<path d="M246.167 56.64C245.485 56.64 244.951 56.448 244.567 56.064C244.183 55.68 243.991 55.1467 243.991 54.464C243.991 54.208 244.013 53.8987 244.055 53.536C244.098 53.1733 244.151 52.8 244.215 52.416C244.279 52.0107 244.343 51.6373 244.407 51.296C244.493 50.9333 244.557 50.624 244.599 50.368L246.775 39.68L250.423 39.296L247.735 52.672C247.714 52.8427 247.682 53.0667 247.639 53.344C247.597 53.6 247.575 53.824 247.575 54.016C247.575 54.336 247.65 54.592 247.799 54.784C247.97 54.976 248.215 55.0827 248.535 55.104C248.407 55.6373 248.109 56.0213 247.639 56.256C247.191 56.512 246.701 56.64 246.167 56.64ZM249.399 36.864C248.717 36.864 248.151 36.704 247.703 36.384C247.255 36.0427 247.031 35.5413 247.031 34.88C247.031 34.176 247.266 33.664 247.735 33.344C248.205 33.0027 248.781 32.832 249.463 32.832C250.146 32.832 250.711 33.0027 251.159 33.344C251.607 33.664 251.831 34.1547 251.831 34.816C251.831 35.52 251.597 36.0427 251.127 36.384C250.658 36.704 250.082 36.864 249.399 36.864Z" fill="#0F172A"/>
<path d="M256.755 56.64C255.667 56.64 254.782 56.384 254.099 55.872C253.438 55.3387 252.947 54.624 252.627 53.728C252.329 52.8107 252.179 51.7653 252.179 50.592C252.179 49.0133 252.393 47.5307 252.819 46.144C253.246 44.736 253.854 43.4987 254.643 42.432C255.454 41.3653 256.393 40.5333 257.459 39.936C258.526 39.3387 259.699 39.04 260.979 39.04C262.025 39.04 263.123 39.264 264.275 39.712L267.507 39.296L264.947 52.672C264.926 52.864 264.894 53.088 264.851 53.344C264.809 53.6 264.787 53.824 264.787 54.016C264.787 54.336 264.862 54.592 265.011 54.784C265.182 54.976 265.438 55.0827 265.779 55.104C265.673 55.4667 265.491 55.7653 265.235 56C265.001 56.2133 264.723 56.3733 264.403 56.48C264.105 56.5867 263.763 56.64 263.379 56.64C262.803 56.64 262.313 56.48 261.907 56.16C261.502 55.8613 261.267 55.4133 261.203 54.816C260.649 55.3493 259.987 55.7867 259.219 56.128C258.473 56.4693 257.651 56.64 256.755 56.64ZM258.163 54.72C258.974 54.72 259.625 54.4533 260.115 53.92C260.627 53.3867 261.033 52.7253 261.331 51.936C261.63 51.1253 261.854 50.3467 262.003 49.6L263.411 41.952C262.985 41.6107 262.537 41.3653 262.067 41.216C261.619 41.0453 261.203 40.96 260.819 40.96C260.158 40.96 259.561 41.152 259.027 41.536C258.515 41.92 258.057 42.4427 257.651 43.104C257.267 43.7653 256.937 44.5333 256.659 45.408C256.403 46.2827 256.211 47.2213 256.083 48.224C255.955 49.2053 255.891 50.1973 255.891 51.2C255.891 52.1813 256.051 53.0133 256.371 53.696C256.691 54.3787 257.289 54.72 258.163 54.72Z" fill="#0F172A"/>
<path d="M271.166 56.64C270.484 56.64 269.94 56.448 269.534 56.064C269.15 55.68 268.958 55.1467 268.958 54.464C268.958 54.2293 268.98 53.952 269.022 53.632C269.065 53.312 269.118 52.9173 269.182 52.448C269.268 51.9787 269.385 51.392 269.534 50.688C269.684 49.984 269.854 49.1413 270.046 48.16C270.238 47.1787 270.473 46.016 270.75 44.672C271.028 43.328 271.348 41.792 271.71 40.064C271.924 38.848 272.105 37.664 272.254 36.512C272.404 35.3387 272.478 34.3573 272.478 33.568C272.478 33.312 272.468 33.088 272.446 32.896C272.425 32.6827 272.393 32.4907 272.35 32.32C272.564 32.192 272.82 32.0853 273.118 32C273.417 31.9147 273.726 31.872 274.046 31.872C274.601 31.872 275.113 32.0427 275.582 32.384C276.073 32.704 276.318 33.28 276.318 34.112C276.318 34.2827 276.276 34.624 276.19 35.136C276.105 35.648 275.998 36.2453 275.87 36.928C275.742 37.5893 275.604 38.2827 275.454 39.008C275.326 39.712 275.209 40.352 275.102 40.928C274.59 43.4027 274.174 45.4293 273.854 47.008C273.534 48.5653 273.278 49.792 273.086 50.688C272.916 51.584 272.788 52.2453 272.702 52.672C272.638 53.0987 272.596 53.3973 272.574 53.568C272.553 53.7387 272.542 53.888 272.542 54.016C272.542 54.336 272.617 54.592 272.766 54.784C272.937 54.976 273.182 55.0827 273.502 55.104C273.438 55.4667 273.278 55.7653 273.022 56C272.788 56.2133 272.51 56.3733 272.19 56.48C271.87 56.5867 271.529 56.64 271.166 56.64Z" fill="#0F172A"/>
</svg>
