<svg xmlns="http://www.w3.org/2000/svg" xml:space="preserve" style="shape-rendering:geometricPrecision;text-rendering:geometricPrecision;image-rendering:optimizeQuality;fill-rule:evenodd;clip-rule:evenodd" viewBox="0 0 120.27 96.91">
  <path d="M23.77 1.81c-5.59 8.39 4.2 2.8-4.2 19.58-1.4 5.59-5.59 15.38-8.39 19.58l2.8 2.8 1.4 1.4c1.4 1.4 2.8 1.4 4.19 2.8 0 2.8-1.4 4.2-2.8 5.59-1.4-6.99 2.8-2.8-4.2-5.59-1.4 9.79-4.19 15.38-5.59 25.17-1.4 12.59-4.2 13.98-6.99 23.77h120.27c0-15.38-16.78-78.31-22.38-96.49l-6.99 5.59v-1.4c-2.8 5.59 4.2-6.99-13.98-4.2-9.79 1.4-8.39 1.4-16.78 0-2.8 0-34.96 1.4-36.36 1.4zm19.58 20.98-8.39 47.55c-2.8 9.79-9.79 6.99-22.38 6.99l12.59 1.4c4.2 0 8.39 0 12.59-1.4h23.77c34.96 2.8 15.38 5.59 47.55 4.2l2.8 6.99c1.4-2.8 1.4-2.8 1.4-8.39-5.59-1.4-12.59 0-19.58-1.4-8.39 0-9.79 0-9.79-8.39 5.59 1.4 0 0 5.59 2.8l5.59-13.98c-12.59-1.4-4.2-1.4-9.79 5.59-5.59-4.2-4.2-33.56-6.99-41.95H43.35z" style="fill:#f79421"/>
</svg>
