<?xml version="1.0" encoding="UTF-8"?>
<!DOCTYPE svg PUBLIC "-//W3C//DTD SVG 1.1//EN" "http://www.w3.org/Graphics/SVG/1.1/DTD/svg11.dtd">
<!-- Creator: CorelDRAW 2020 (64-Bit Versión de evaluación) -->
<svg xmlns="http://www.w3.org/2000/svg" xml:space="preserve" width="86.8585mm" height="10.8193mm" version="1.1" style="shape-rendering:geometricPrecision; text-rendering:geometricPrecision; image-rendering:optimizeQuality; fill-rule:evenodd; clip-rule:evenodd"
viewBox="0 0 7791.69 970.55"
 xmlns:xlink="http://www.w3.org/1999/xlink"
 xmlns:xodm="http://www.corel.com/coreldraw/odm/2003">
 <defs>
  <style type="text/css">
   <![CDATA[
    .fil1 {fill:#080808}
    .fil0 {fill:#F79421}
   ]]>
  </style>
 </defs>
 <g id="Capa_x0020_1">
  <metadata id="CorelCorpID_0Corel-Layer"/>
  <path class="fil0" d="M237.07 18.05c-55.78,83.68 41.84,27.9 -41.84,195.24 -13.94,55.78 -55.78,153.4 -83.67,195.24l27.89 27.89c0,0 0,0 13.95,13.95 13.94,13.94 27.89,13.94 41.83,27.89 0,27.89 -13.94,41.84 -27.89,55.79 -13.94,-69.74 27.89,-27.9 -41.84,-55.79 -13.94,97.62 -41.83,153.4 -55.78,251.01 -13.94,125.52 -41.84,139.46 -69.73,237.08l1199.31 -0.01c0,-153.4 -167.34,-780.94 -223.12,-962.24l-69.73 55.78c0,0 0,-13.94 0,-13.94 -27.89,55.78 41.84,-69.73 -139.46,-41.84 -97.62,13.95 -83.67,13.95 -167.35,0 -27.89,0 -348.64,13.95 -362.58,13.94zm195.24 209.18l-83.67 474.15c-27.9,97.62 -97.63,69.73 -223.13,69.73l125.51 13.94c41.85,0.01 83.68,0.01 125.52,-13.94 83.67,0 153.4,0 237.07,0 348.63,27.89 153.4,55.78 474.14,41.84l27.89 69.73c13.95,-27.89 13.95,-27.89 13.95,-83.68 -55.78,-13.95 -125.51,0 -195.24,-13.94 -83.67,0 -97.62,0 -97.62,-83.68 55.79,13.95 0,0 55.79,27.89l55.78 -139.45c-125.51,-13.95 -41.84,-13.95 -97.62,55.78 -55.79,-41.84 -41.84,-334.69 -69.73,-418.37l-348.64 0z"/>
  <path class="fil0" d="M6703.94 412.74c13.95,27.89 55.79,41.84 83.68,69.73 0,41.84 0,27.89 -27.89,55.78 -13.95,-69.73 41.84,-27.89 -41.84,-55.78 -13.95,111.57 -41.84,153.4 -55.78,251.01 0,125.52 -27.89,139.46 -69.73,237.07l1199.3 0c0.01,-153.4 -167.34,-808.84 -223.12,-962.24 -69.73,13.95 -13.95,0 -69.73,55.78l-0.01 -13.94c-69.72,-97.62 -111.56,-13.95 -251.01,-27.89 -111.56,-13.95 -209.18,13.94 -306.79,0 -209.18,-27.9 -83.68,27.89 -125.52,153.41 -27.89,69.72 -69.73,153.4 -111.57,237.06zm320.75 -181.29c-41.84,153.41 -41.84,390.47 -97.62,529.93l-167.35 27.9c83.67,13.94 529.93,-41.84 669.38,27.89 83.67,27.89 153.4,13.94 251.01,0l27.89 69.73c13.95,-13.95 0,27.89 13.95,-27.89 13.94,-55.79 13.94,-0.01 0,-55.79 -153.4,-41.84 -292.85,41.84 -278.91,-83.67 0,0 0,0 0,0l13.95 0c27.89,0 13.95,41.83 83.67,-125.52 -125.51,-27.89 -41.83,0.01 -97.62,69.74 -55.78,-55.79 -41.83,-292.86 -55.78,-376.54 -13.95,-83.67 -69.73,-55.78 -153.41,-55.78 -41.83,0 -195.24,-13.94 -209.18,0z"/>
  <path class="fil1" d="M1941.05 602.39c-269.02,59.78 -179.35,406.53 107.61,346.74 269.03,-47.82 185.33,-406.52 -107.61,-346.74zm11.96 17.93c-179.35,53.81 -125.54,370.65 89.68,310.87 179.35,-47.83 119.56,-370.65 -89.68,-310.87z"/>
  <path class="fil1" d="M1319.31 614.35c17.94,65.76 11.96,251.09 5.98,322.82l-53.81 17.94 191.31 0 -71.74 -11.96c-5.98,-47.83 -5.98,-107.61 -5.98,-155.43l251.09 0c5.98,53.8 5.98,95.64 -5.97,149.45 -17.93,11.96 -41.85,5.98 -65.76,17.94l191.31 0c-17.93,-11.96 -35.87,-5.98 -53.81,-17.94 -11.96,-149.45 -11.96,-161.41 0,-316.85l53.81 -11.95 -191.31 -5.98c11.96,5.98 59.79,11.96 65.76,17.93 11.96,35.87 17.93,113.59 5.97,149.46 -53.81,0 -209.24,17.94 -245.1,-5.97 -11.96,-23.92 -5.98,-113.59 0,-149.46l-71.75 0z"/>
  <path class="fil1" d="M3413.28 593.63c53.8,23.91 59.78,23.91 59.78,89.67 0,53.81 -5.98,203.26 -17.93,257.07l23.91 -5.98 17.94 -251.09 119.56 251.09c0,0 0,0 0,5.98l11.96 11.95c23.92,-35.86 107.61,-245.1 131.53,-269.02 17.93,41.85 17.93,185.32 11.95,251.09l-47.82 11.96 149.46 5.97c-41.85,-17.93 -41.85,0 -47.83,-47.82 -5.97,-65.76 -17.93,-239.13 -11.96,-292.93l53.81 -11.96 -89.67 -5.97c-17.93,29.89 -47.83,107.6 -59.78,143.48 -23.92,35.86 -59.79,101.63 -71.75,137.5 -5.97,-5.98 -5.97,0 -11.95,-11.96l-131.53 -263.04 -89.67 -5.97z"/>
  <path class="fil1" d="M5894.26 952.32l65.76 -17.94 29.89 -95.65 131.52 0c11.96,29.89 23.92,65.76 29.89,101.64l95.65 11.96c-53.8,-29.9 -35.86,-5.98 -59.78,-71.75 -29.89,-59.78 -95.65,-275 -119.57,-286.95 -11.95,5.97 -5.97,0 -17.93,11.95 0,5.98 -5.97,29.89 -5.97,29.89 -5.98,11.96 -11.96,29.9 -17.94,47.83l-89.67 239.13c-11.96,29.9 -17.93,11.96 -41.85,29.9zm107.61 -131.53l113.59 0c-5.97,-23.92 -47.83,-137.5 -65.76,-155.43 -11.96,29.89 -53.81,131.52 -47.82,155.43z"/>
  <path class="fil1" d="M4644.8 946.34l113.59 5.98 -53.81 -11.96 29.89 -101.63 137.5 -0.01c11.96,29.89 23.92,65.76 29.89,101.64l89.68 11.96c-41.85,-17.94 -35.87,-23.92 -53.81,-71.75 -17.94,-29.89 -101.64,-275 -119.57,-286.95 -23.92,5.97 -35.86,65.75 -41.85,89.67 -11.96,29.89 -23.92,65.76 -35.87,101.63 -11.95,29.9 -23.91,59.79 -35.86,95.65 -17.93,53.81 -5.98,53.81 -59.78,65.76zm215.21 -125.54c5.98,-11.96 -17.93,-53.81 -23.92,-77.72 -11.96,-23.91 -17.93,-59.78 -35.86,-71.74 -17.93,23.92 -35.87,89.68 -47.83,119.57 -11.96,29.89 -11.96,29.89 23.92,35.86 23.92,0 65.76,0 83.7,-5.97z"/>
  <path class="fil1" d="M3879.58 952.32l65.76 -11.96c0,-35.87 17.93,-71.75 29.89,-101.64l131.53 0c17.93,29.89 29.89,65.76 29.89,101.64l95.65 11.96c-47.83,-29.9 -35.87,-11.96 -59.79,-71.75l-101.63 -269.02c-11.96,-23.92 0,-11.96 -17.93,-17.93 -29.89,17.93 -101.64,292.93 -125.54,334.78 -17.94,23.92 -17.94,5.97 -47.83,23.92zm107.61 -131.53l107.61 5.97c5.97,-35.86 -35.87,-131.52 -53.81,-155.43l-17.93 35.87c-5.98,11.96 -11.96,23.92 -17.94,35.86 -5.97,17.94 -23.91,59.79 -17.93,77.72z"/>
  <path class="fil1" d="M4238.27 599.6c11.96,0 29.89,5.97 35.87,11.96 5.97,0 17.93,5.97 17.93,5.97 23.92,17.94 17.93,29.89 17.93,89.68l-5.97 227.17 -47.83 11.96 125.55 5.97 -47.83 -11.95c-11.96,-53.81 -11.96,-239.14 -5.97,-280.98l251.09 298.92 0 -334.78c5.97,-23.92 23.92,-17.94 53.81,-23.92l-125.54 0c59.78,17.93 59.78,-23.92 53.81,203.26l0 53.81c-29.9,-11.96 -179.35,-209.25 -197.29,-245.11 -23.91,-29.89 -113.59,-17.93 -125.54,-11.96z"/>
  <path class="fil1" d="M2694.32 614.35c11.96,77.72 11.96,251.09 -5.98,322.82l-59.78 11.96 286.96 5.98 5.97 -77.72 -23.91 59.78c-41.85,5.98 -95.65,0 -137.5,-5.97l-5.98 -143.48c35.87,-11.96 77.72,-11.96 113.59,-5.98l17.94 41.85c5.97,-17.93 5.97,-83.7 0,-101.63l-11.96 41.85c-35.87,5.97 -83.7,5.97 -113.59,-5.98l0 -131.52c41.85,-11.96 89.67,-5.98 131.52,-5.98 5.98,11.96 11.96,47.83 23.92,53.81l-5.98 -65.75 -280.98 -5.98 65.76 11.96z"/>
  <path class="fil1" d="M5063.28 934.38l29.89 5.98c-11.96,-65.76 -5.97,-209.25 -5.97,-280.98 17.93,5.98 5.97,0 17.93,11.96 47.82,41.85 227.17,280.98 233.15,286.96l5.97 -346.74 -23.92 0 5.98 245.11c-29.89,-17.94 -107.61,-119.57 -137.5,-155.44 -71.74,-89.67 -59.78,-107.6 -113.59,-107.6 -23.92,0 -47.83,0 -71.75,5.97 77.72,23.92 71.75,35.87 71.75,131.52 0,59.79 0,149.46 -11.96,203.26z"/>
  <path class="fil1" d="M3011.16 614.35c11.96,53.81 11.96,269.02 -5.98,322.82 -5.97,5.98 0,0 -11.96,5.98 -5.97,0 -5.97,0 -11.95,5.97 -17.94,0 -23.92,0 -35.87,5.98l316.85 0c5.97,-23.92 17.93,-71.75 5.97,-89.68l-29.89 65.76c-59.78,11.96 -107.61,5.97 -161.41,-5.98 -5.98,-53.8 -11.96,-257.06 5.97,-304.89l35.87 -11.95c5.97,0 17.93,0 23.91,0l-197.28 -5.98 65.76 11.96z"/>
  <path class="fil1" d="M2239.97 680.11l23.92 -59.79c47.82,-5.97 83.7,-5.97 131.52,5.98 5.98,59.78 11.96,263.04 -5.97,310.87 -5.98,5.98 0,0 -11.96,5.98l89.67 0c-17.93,-53.81 -11.95,-257.07 -5.97,-316.85 47.82,-11.96 83.7,-11.96 131.53,-5.98l17.93 59.79 0 -77.72c-119.57,5.98 -245.11,5.98 -364.68,0l-5.97 77.72z"/>
  <path class="fil1" d="M5410.02 671.34c11.96,-53.81 11.96,-65.76 71.74,-59.78 0,0 23.92,0 29.89,0 23.92,11.96 11.96,5.97 17.94,11.96 11.95,35.86 5.97,269.02 0,316.85l59.78 -5.98c-11.96,-65.76 -17.93,-257.06 0,-310.87 29.89,-17.94 65.76,-17.94 101.63,-11.96l17.93 53.81 0 -71.74c-59.78,-5.98 -203.25,11.95 -298.91,0l0 71.74c0,0 0,0 0,0 0,0 0,5.97 0,5.97z"/>
  <path class="fil1" d="M6306.76 611.56c11.96,41.85 11.96,275 0,328.81l203.25 11.95 5.98 -83.7c0,0 0,-5.97 0,-5.97l-23.92 65.76c-41.85,5.97 -83.7,11.96 -131.52,-5.98 -5.98,-77.71 -5.98,-209.24 0,-286.95 5.97,-41.85 17.93,-23.92 53.81,-35.87l-161.42 -5.97 53.81 17.93z"/>
  <path class="fil1" d="M5774.69 940.37l59.79 -5.98c-11.96,-71.74 -11.96,-257.06 0,-322.82l53.8 -11.96 -161.41 -5.97c47.82,17.93 53.81,-17.94 53.81,143.48 0,59.78 5.97,149.46 -5.98,203.26z"/>
 </g>
</svg>
