<?xml version="1.0" encoding="UTF-8"?>
<!DOCTYPE svg PUBLIC "-//W3C//DTD SVG 1.1//EN" "http://www.w3.org/Graphics/SVG/1.1/DTD/svg11.dtd">
<!-- Creator: CorelDRAW 2020 (64-Bit Versión de evaluación) -->
<svg xmlns="http://www.w3.org/2000/svg" xml:space="preserve" width="70.8738mm" height="16.5282mm" version="1.1" style="shape-rendering:geometricPrecision; text-rendering:geometricPrecision; image-rendering:optimizeQuality; fill-rule:evenodd; clip-rule:evenodd"
viewBox="0 0 2135.73 498.06"
 xmlns:xlink="http://www.w3.org/1999/xlink"
 xmlns:xodm="http://www.corel.com/coreldraw/odm/2003">
 <defs>
  <style type="text/css">
   <![CDATA[
    .fil0 {fill:#F79421}
    .fil1 {fill:white}
   ]]>
  </style>
 </defs>
 <g id="Capa_x0020_1">
  <metadata id="CorelCorpID_0Corel-Layer"/>
  <path class="fil0" d="M79.64 179.51c-18.74,28.11 14.05,9.37 -14.05,65.59 -4.68,18.74 -18.74,51.53 -28.11,65.58l9.37 9.37c0,0 0,0 4.69,4.69 4.68,4.68 9.37,4.68 14.05,9.37 0,9.37 -4.68,14.05 -9.37,18.74 -4.68,-23.43 9.37,-9.37 -14.05,-18.74 -4.68,32.79 -14.05,51.53 -18.74,84.32 -4.68,42.16 -14.05,46.85 -23.42,79.64l402.88 -0c0,-51.53 -56.21,-262.34 -74.95,-323.24l-23.42 18.74c0,0 0,-4.68 0,-4.68 -9.37,18.74 14.05,-23.42 -46.85,-14.05 -32.79,4.69 -28.11,4.69 -56.22,0 -9.37,0 -117.12,4.69 -121.8,4.68zm65.58 70.27l-28.11 159.28c-9.37,32.79 -32.8,23.42 -74.96,23.42l42.16 4.68c14.06,0 28.11,0 42.16,-4.68 28.11,0 51.53,0 79.64,0 117.11,9.37 51.53,18.74 159.27,14.05l9.37 23.42c4.69,-9.37 4.69,-9.37 4.69,-28.11 -18.74,-4.69 -42.16,0 -65.58,-4.68 -28.11,0 -32.79,0 -32.79,-28.11 18.74,4.69 0,0 18.74,9.37l18.74 -46.84c-42.16,-4.69 -14.05,-4.69 -32.79,18.74 -18.74,-14.05 -14.05,-112.43 -23.42,-140.54l-117.12 0z"/>
  <path class="fil0" d="M1770.32 308.94c4.69,9.37 18.74,14.05 28.11,23.42 0,14.05 0,9.37 -9.37,18.74 -4.69,-23.42 14.05,-9.37 -14.05,-18.74 -4.69,37.48 -14.05,51.53 -18.74,84.32 0,42.16 -9.37,46.85 -23.42,79.64l402.87 0c0,-51.53 -56.21,-271.71 -74.95,-323.24 -23.42,4.69 -4.69,0 -23.42,18.74l-0 -4.68c-23.42,-32.79 -37.47,-4.69 -84.32,-9.37 -37.47,-4.69 -70.27,4.68 -103.06,0 -70.27,-9.37 -28.11,9.37 -42.16,51.53 -9.37,23.42 -23.42,51.53 -37.48,79.64zm107.75 -60.9c-14.05,51.53 -14.05,131.17 -32.79,178.01l-56.22 9.37c28.11,4.68 178.01,-14.05 224.86,9.37 28.11,9.37 51.53,4.68 84.32,0l9.37 23.42c4.69,-4.69 0,9.37 4.69,-9.37 4.68,-18.74 4.68,-0 0,-18.74 -51.53,-14.05 -98.38,14.05 -93.69,-28.11 0,0 0,0 0,0l4.69 0c9.37,0 4.69,14.05 28.11,-42.16 -42.16,-9.37 -14.05,0 -32.79,23.43 -18.74,-18.74 -14.05,-98.38 -18.74,-126.49 -4.69,-28.11 -23.42,-18.74 -51.53,-18.74 -14.05,0 -65.58,-4.68 -70.27,0z"/>
  <path class="fil1" d="M937.22 177.58c-111.66,24.81 -74.44,168.73 44.66,143.92 111.66,-19.85 76.92,-168.73 -44.66,-143.92zm4.96 7.44c-74.44,22.33 -52.11,153.84 37.22,129.03 74.44,-19.85 49.63,-153.84 -37.22,-129.03z"/>
  <path class="fil1" d="M679.16 182.55c7.45,27.3 4.96,104.22 2.48,133.99l-22.33 7.45 79.4 0 -29.78 -4.96c-2.48,-19.85 -2.48,-44.66 -2.48,-64.52l104.22 0c2.48,22.33 2.48,39.7 -2.48,62.03 -7.44,4.96 -17.37,2.48 -27.3,7.45l79.4 0c-7.44,-4.96 -14.89,-2.48 -22.33,-7.45 -4.96,-62.03 -4.96,-67 0,-131.51l22.33 -4.96 -79.4 -2.48c4.96,2.48 24.81,4.96 27.3,7.44 4.96,14.89 7.44,47.14 2.48,62.03 -22.33,0 -86.85,7.44 -101.74,-2.48 -4.96,-9.93 -2.48,-47.15 0,-62.03l-29.78 0z"/>
  <path class="fil1" d="M421.1 346.31c22.33,9.93 24.81,9.93 24.81,37.22 0,22.33 -2.48,84.37 -7.44,106.7l9.93 -2.48 7.44 -104.22 49.63 104.22c0,0 0,0 0,2.48l4.96 4.96c9.92,-14.89 44.66,-101.73 54.59,-111.66 7.45,17.37 7.45,76.92 4.96,104.22l-19.85 4.96 62.03 2.48c-17.37,-7.44 -17.37,0 -19.85,-19.85 -2.48,-27.3 -7.44,-99.25 -4.96,-121.59l22.33 -4.96 -37.22 -2.48c-7.45,12.41 -19.85,44.66 -24.82,59.55 -9.92,14.89 -24.81,42.18 -29.78,57.07 -2.48,-2.48 -2.48,0 -4.96,-4.96l-54.59 -109.18 -37.22 -2.48z"/>
  <path class="fil1" d="M1450.86 495.2l27.3 -7.44 12.41 -39.7 54.59 0c4.96,12.41 9.92,27.29 12.41,42.18l39.7 4.96c-22.33,-12.41 -14.89,-2.48 -24.82,-29.78 -12.41,-24.81 -39.7,-114.14 -49.63,-119.11 -4.96,2.48 -2.48,0 -7.44,4.96 0,2.48 -2.48,12.41 -2.48,12.41 -2.48,4.96 -4.96,12.41 -7.44,19.85l-37.22 99.25c-4.96,12.41 -7.44,4.96 -17.37,12.41zm44.66 -54.59l47.14 0c-2.48,-9.93 -19.85,-57.07 -27.29,-64.51 -4.96,12.41 -22.33,54.59 -19.85,64.51z"/>
  <path class="fil1" d="M932.26 492.72l47.14 2.48 -22.33 -4.96 12.41 -42.18 57.07 -0c4.96,12.41 9.93,27.3 12.41,42.18l37.22 4.96c-17.37,-7.44 -14.89,-9.92 -22.33,-29.78 -7.44,-12.41 -42.18,-114.14 -49.63,-119.11 -9.93,2.48 -14.89,27.3 -17.37,37.22 -4.96,12.41 -9.93,27.3 -14.89,42.18 -4.96,12.41 -9.92,24.82 -14.89,39.7 -7.45,22.33 -2.48,22.33 -24.81,27.3zm89.33 -52.11c2.48,-4.96 -7.44,-22.33 -9.93,-32.26 -4.96,-9.93 -7.44,-24.81 -14.89,-29.78 -7.44,9.93 -14.89,37.22 -19.85,49.63 -4.96,12.41 -4.96,12.41 9.93,14.89 9.93,0 27.3,0 34.74,-2.48z"/>
  <path class="fil1" d="M614.64 495.2l27.3 -4.96c0,-14.89 7.44,-29.78 12.41,-42.18l54.59 0c7.45,12.41 12.41,27.3 12.41,42.18l39.7 4.96c-19.85,-12.41 -14.89,-4.96 -24.82,-29.78l-42.18 -111.66c-4.96,-9.93 0,-4.96 -7.45,-7.45 -12.41,7.45 -42.18,121.59 -52.11,138.96 -7.45,9.92 -7.45,2.48 -19.85,9.92zm44.66 -54.59l44.66 2.48c2.48,-14.89 -14.89,-54.59 -22.33,-64.51l-7.45 14.89c-2.48,4.96 -4.96,9.92 -7.44,14.89 -2.48,7.45 -9.93,24.82 -7.44,32.26z"/>
  <path class="fil1" d="M763.52 348.8c4.96,0 12.41,2.48 14.89,4.96 2.48,0 7.44,2.48 7.44,2.48 9.93,7.44 7.44,12.41 7.44,37.22l-2.48 94.29 -19.85 4.96 52.11 2.48 -19.85 -4.96c-4.96,-22.33 -4.96,-99.26 -2.48,-116.63l104.22 124.07 0 -138.95c2.48,-9.93 9.92,-7.45 22.33,-9.93l-52.11 0c24.81,7.44 24.81,-9.93 22.33,84.37l0 22.33c-12.41,-4.96 -74.44,-86.85 -81.88,-101.73 -9.93,-12.41 -47.14,-7.45 -52.11,-4.96z"/>
  <path class="fil1" d="M1249.87 182.55c4.96,32.26 4.96,104.22 -2.48,133.99l-24.82 4.96 119.11 2.48 2.48 -32.26 -9.93 24.81c-17.37,2.48 -39.7,0 -57.07,-2.48l-2.48 -59.55c14.89,-4.96 32.26,-4.96 47.15,-2.48l7.44 17.37c2.48,-7.44 2.48,-34.74 0,-42.18l-4.96 17.37c-14.89,2.48 -34.74,2.48 -47.14,-2.48l0 -54.59c17.37,-4.96 37.22,-2.48 54.59,-2.48 2.48,4.96 4.96,19.85 9.93,22.33l-2.48 -27.3 -116.63 -2.48 27.3 4.96z"/>
  <path class="fil1" d="M1105.95 487.75l12.41 2.48c-4.96,-27.3 -2.48,-86.85 -2.48,-116.63 7.44,2.48 2.48,0 7.44,4.96 19.85,17.37 94.29,116.62 96.77,119.11l2.48 -143.92 -9.92 0 2.48 101.73c-12.41,-7.44 -44.66,-49.63 -57.07,-64.51 -29.78,-37.22 -24.81,-44.66 -47.14,-44.66 -9.93,0 -19.85,0 -29.78,2.48 32.26,9.93 29.78,14.89 29.78,54.59 0,24.82 0,62.03 -4.96,84.37z"/>
  <path class="fil1" d="M1381.38 182.55c4.96,22.33 4.96,111.66 -2.48,133.99 -2.48,2.48 0,0 -4.96,2.48 -2.48,0 -2.48,0 -4.96,2.48 -7.44,0 -9.93,0 -14.89,2.48l131.51 0c2.48,-9.93 7.45,-29.78 2.48,-37.22l-12.41 27.3c-24.82,4.96 -44.66,2.48 -67,-2.48 -2.48,-22.33 -4.96,-106.7 2.48,-126.55l14.89 -4.96c2.48,0 7.44,0 9.93,0l-81.89 -2.48 27.3 4.96z"/>
  <path class="fil1" d="M1061.28 209.84l9.93 -24.82c19.85,-2.48 34.74,-2.48 54.59,2.48 2.48,24.81 4.96,109.18 -2.48,129.03 -2.48,2.48 0,0 -4.96,2.48l37.22 0c-7.45,-22.33 -4.96,-106.7 -2.48,-131.51 19.85,-4.96 34.74,-4.96 54.59,-2.48l7.44 24.82 0 -32.26c-49.63,2.48 -101.74,2.48 -151.36,0l-2.48 32.26z"/>
  <path class="fil1" d="M1249.87 378.57c4.96,-22.33 4.96,-27.3 29.78,-24.81 0,0 9.93,0 12.41,0 9.93,4.96 4.96,2.48 7.45,4.96 4.96,14.89 2.48,111.66 0,131.51l24.81 -2.48c-4.96,-27.3 -7.44,-106.7 0,-129.03 12.41,-7.45 27.3,-7.45 42.18,-4.96l7.45 22.33 0 -29.78c-24.82,-2.48 -84.37,4.96 -124.07,0l0 29.78c0,0 0,0 0,0 0,0 0,2.48 0,2.48z"/>
  <path class="fil1" d="M1622.07 353.76c4.96,17.37 4.96,114.14 0,136.47l84.37 4.96 2.48 -34.74c0,0 0,-2.48 0,-2.48l-9.92 27.3c-17.37,2.48 -34.74,4.96 -54.59,-2.48 -2.48,-32.26 -2.48,-86.85 0,-119.11 2.48,-17.37 7.44,-9.92 22.33,-14.89l-67 -2.48 22.33 7.45z"/>
  <path class="fil1" d="M1401.23 490.24l24.81 -2.48c-4.96,-29.78 -4.96,-106.7 0,-133.99l22.33 -4.96 -67 -2.48c19.85,7.45 22.33,-7.44 22.33,59.55 0,24.81 2.48,62.03 -2.48,84.37z"/>
  <path class="fil0" d="M944.26 46.85c14.05,18.74 23.42,14.05 32.79,28.11 4.68,14.05 -4.69,28.11 -4.69,46.85 70.27,-18.74 18.74,-28.11 98.38,0 -4.68,-18.74 -14.05,-32.79 -4.68,-46.85 9.37,-14.05 18.74,-14.05 32.79,-28.11 -14.05,-4.69 -37.48,-4.69 -51.53,-9.37 -9.37,-4.69 -9.37,-9.37 -14.05,-18.74 -4.69,-9.37 4.68,0 -4.69,-9.37 -9.37,-9.37 0,-4.68 -9.37,-9.37 -28.11,60.9 -28.11,28.11 -74.95,46.85z"/>
  <path class="fil0" d="M1122.28 46.85c9.37,9.37 28.11,23.42 37.47,28.11l-9.37 46.85c14.05,-4.68 37.48,-18.74 46.85,-18.74 18.74,0 37.48,14.05 51.53,18.74l-9.37 -46.85c9.37,-4.68 23.42,-9.37 32.79,-18.74 4.69,-14.05 4.69,0 0,-14.05 -70.27,-4.68 -37.47,-4.68 -70.27,-42.16 -9.37,9.37 -14.05,28.11 -23.42,32.79 -14.05,9.37 -42.16,9.37 -56.22,14.05z"/>
  <path class="fil0" d="M761.56 46.85c9.37,9.37 32.79,23.42 37.48,28.11l-4.69 46.85c14.05,-4.68 32.79,-18.74 42.16,-18.74 18.74,0 37.48,14.05 51.53,18.74l-4.69 -46.85c4.69,-4.68 28.11,-18.74 32.79,-28.11 -84.32,-14.05 -42.16,-14.05 -74.95,-46.85 -42.16,42.16 4.68,32.79 -79.64,46.85z"/>
 </g>
</svg>
