<?xml version="1.0" encoding="UTF-8"?>
<!DOCTYPE svg PUBLIC "-//W3C//DTD SVG 1.1//EN" "http://www.w3.org/Graphics/SVG/1.1/DTD/svg11.dtd">
<!-- Creator: CorelDRAW 2020 (64-Bit Versión de evaluación) -->
<svg xmlns="http://www.w3.org/2000/svg" xml:space="preserve" width="63.1067mm" height="14.1341mm" version="1.1" style="shape-rendering:geometricPrecision; text-rendering:geometricPrecision; image-rendering:optimizeQuality; fill-rule:evenodd; clip-rule:evenodd"
viewBox="0 0 3623.07 811.46"
 xmlns:xlink="http://www.w3.org/1999/xlink"
 xmlns:xodm="http://www.corel.com/coreldraw/odm/2003">
 <defs>
  <style type="text/css">
   <![CDATA[
    .fil1 {fill:#080808}
    .fil0 {fill:#F79421}
   ]]>
  </style>
 </defs>
 <g id="Capa_x0020_1">
  <metadata id="CorelCorpID_0Corel-Layer"/>
  <path class="fil0" d="M151.73 180.05c-35.7,53.55 26.78,17.86 -26.78,124.96 -8.92,35.7 -35.7,98.17 -53.55,124.95l17.85 17.85c0,0 0,0 8.93,8.93 8.92,8.92 17.85,8.92 26.77,17.85 0,17.85 -8.92,26.78 -17.85,35.7 -8.92,-44.63 17.85,-17.86 -26.78,-35.7 -8.92,62.48 -26.77,98.17 -35.7,160.65 -8.92,80.33 -26.78,89.25 -44.63,151.73l767.56 -0.01c0,-98.17 -107.1,-499.8 -142.8,-615.83l-44.63 35.7c0,0 0,-8.92 0,-8.92 -17.85,35.7 26.78,-44.63 -89.25,-26.78 -62.48,8.93 -53.55,8.93 -107.1,0 -17.85,0 -223.13,8.93 -232.05,8.92zm124.95 133.88l-53.55 303.46c-17.86,62.48 -62.48,44.63 -142.81,44.63l80.32 8.92c26.78,0.01 53.55,0.01 80.33,-8.92 53.55,0 98.17,0 151.73,0 223.13,17.85 98.17,35.7 303.45,26.78l17.85 44.63c8.93,-17.85 8.93,-17.85 8.93,-53.55 -35.7,-8.93 -80.32,0 -124.95,-8.92 -53.55,0 -62.48,0 -62.48,-53.55 35.7,8.93 0,0 35.7,17.85l35.7 -89.25c-80.32,-8.93 -26.78,-8.93 -62.48,35.7 -35.7,-26.78 -26.78,-214.2 -44.63,-267.76l-223.13 0z"/>
  <path class="fil0" d="M2926.9 454.46c8.93,17.85 35.7,26.78 53.55,44.63 0,26.78 0,17.85 -17.85,35.7 -8.93,-44.63 26.78,-17.85 -26.78,-35.7 -8.93,71.4 -26.78,98.17 -35.7,160.65 0,80.33 -17.85,89.25 -44.63,151.73l767.56 0c0.01,-98.17 -107.1,-517.66 -142.79,-615.83 -44.63,8.93 -8.93,0 -44.63,35.7l-0.01 -8.92c-44.62,-62.48 -71.4,-8.93 -160.65,-17.85 -71.4,-8.93 -133.88,8.92 -196.35,0 -133.88,-17.86 -53.55,17.85 -80.33,98.18 -17.85,44.62 -44.63,98.17 -71.4,151.72zm205.28 -116.03c-26.78,98.18 -26.78,249.9 -62.48,339.15l-107.1 17.86c53.55,8.92 339.15,-26.78 428.41,17.85 53.55,17.85 98.17,8.92 160.65,0l17.85 44.63c8.93,-8.93 0,17.85 8.93,-17.85 8.92,-35.7 8.92,-0.01 0,-35.7 -98.17,-26.78 -187.43,26.78 -178.5,-53.55 0,0 0,0 0,0l8.93 0c17.85,0 8.93,26.77 53.55,-80.33 -80.32,-17.85 -26.77,0.01 -62.48,44.63 -35.7,-35.7 -26.77,-187.43 -35.7,-240.99 -8.93,-53.55 -44.63,-35.7 -98.18,-35.7 -26.77,0 -124.95,-8.92 -133.87,0z"/>
  <path class="fil1" d="M1618.13 310.53c-172.17,38.26 -114.78,260.18 68.87,221.91 172.18,-30.61 118.61,-260.17 -68.87,-221.91zm7.65 11.48c-114.78,34.44 -80.35,237.22 57.39,198.96 114.78,-30.61 76.52,-237.22 -57.39,-198.96z"/>
  <path class="fil1" d="M1220.21 318.18c11.48,42.09 7.65,160.7 3.83,206.61l-34.44 11.48 122.44 0 -45.91 -7.65c-3.83,-30.61 -3.83,-68.87 -3.83,-99.48l160.7 0c3.83,34.43 3.83,61.21 -3.82,95.65 -11.48,7.65 -26.78,3.83 -42.09,11.48l122.44 0c-11.48,-7.65 -22.96,-3.83 -34.44,-11.48 -7.65,-95.65 -7.65,-103.3 0,-202.78l34.44 -7.65 -122.44 -3.83c7.65,3.83 38.26,7.65 42.09,11.48 7.65,22.96 11.48,72.7 3.82,95.65 -34.44,0 -133.91,11.48 -156.87,-3.82 -7.65,-15.31 -3.83,-72.69 0,-95.65l-45.92 0z"/>
  <path class="fil1" d="M822.3 570.71c34.43,15.3 38.26,15.3 38.26,57.39 0,34.44 -3.83,130.09 -11.48,164.52l15.3 -3.83 11.48 -160.7 76.52 160.7c0,0 0,0 0,3.83l7.65 7.65c15.31,-22.95 68.87,-156.87 84.18,-172.17 11.48,26.78 11.48,118.61 7.65,160.7l-30.61 7.65 95.65 3.82c-26.78,-11.48 -26.78,0 -30.61,-30.61 -3.82,-42.09 -11.48,-153.04 -7.65,-187.48l34.44 -7.65 -57.39 -3.82c-11.48,19.13 -30.61,68.87 -38.26,91.82 -15.31,22.95 -38.26,65.04 -45.92,88 -3.82,-3.83 -3.82,0 -7.65,-7.65l-84.18 -168.35 -57.39 -3.82z"/>
  <path class="fil1" d="M2410.14 800.27l42.09 -11.48 19.13 -61.22 84.17 0c7.65,19.13 15.31,42.09 19.13,65.05l61.22 7.65c-34.43,-19.14 -22.95,-3.83 -38.26,-45.92 -19.13,-38.26 -61.22,-176 -76.52,-183.65 -7.65,3.82 -3.82,0 -11.48,7.65 0,3.83 -3.82,19.13 -3.82,19.13 -3.83,7.65 -7.65,19.14 -11.48,30.61l-57.39 153.04c-7.65,19.14 -11.48,7.65 -26.78,19.14zm68.87 -84.18l72.69 0c-3.82,-15.31 -30.61,-88 -42.09,-99.48 -7.65,19.13 -34.44,84.17 -30.61,99.48z"/>
  <path class="fil1" d="M1610.48 796.45l72.69 3.83 -34.44 -7.65 19.13 -65.04 88 -0.01c7.65,19.13 15.31,42.09 19.13,65.05l57.39 7.65c-26.78,-11.48 -22.96,-15.31 -34.44,-45.92 -11.48,-19.13 -65.05,-176 -76.52,-183.65 -15.31,3.82 -22.95,42.08 -26.78,57.39 -7.65,19.13 -15.31,42.09 -22.96,65.04 -7.65,19.14 -15.3,38.26 -22.95,61.22 -11.48,34.44 -3.83,34.44 -38.26,42.09zm137.74 -80.35c3.83,-7.65 -11.48,-34.44 -15.31,-49.74 -7.65,-15.3 -11.48,-38.26 -22.95,-45.91 -11.48,15.31 -22.96,57.39 -30.61,76.52 -7.65,19.13 -7.65,19.13 15.31,22.95 15.31,0 42.09,0 53.57,-3.82z"/>
  <path class="fil1" d="M1120.74 800.27l42.09 -7.65c0,-22.96 11.48,-45.92 19.13,-65.05l84.18 0c11.48,19.13 19.13,42.09 19.13,65.05l61.22 7.65c-30.61,-19.14 -22.96,-7.65 -38.26,-45.92l-65.04 -172.17c-7.65,-15.31 0,-7.65 -11.48,-11.48 -19.13,11.48 -65.05,187.48 -80.35,214.26 -11.48,15.31 -11.48,3.82 -30.61,15.31zm68.87 -84.18l68.87 3.82c3.82,-22.95 -22.96,-84.17 -34.44,-99.48l-11.48 22.96c-3.83,7.65 -7.65,15.31 -11.48,22.95 -3.82,11.48 -15.3,38.26 -11.48,49.74z"/>
  <path class="fil1" d="M1350.3 574.53c7.65,0 19.13,3.82 22.96,7.65 3.82,0 11.48,3.82 11.48,3.82 15.31,11.48 11.48,19.13 11.48,57.39l-3.82 145.39 -30.61 7.65 80.35 3.82 -30.61 -7.65c-7.65,-34.44 -7.65,-153.05 -3.82,-179.83l160.7 191.31 0 -214.26c3.82,-15.31 15.31,-11.48 34.44,-15.31l-80.35 0c38.26,11.48 38.26,-15.31 34.44,130.09l0 34.44c-19.14,-7.65 -114.78,-133.92 -126.27,-156.87 -15.3,-19.13 -72.69,-11.48 -80.35,-7.65z"/>
  <path class="fil1" d="M2100.22 318.18c7.65,49.74 7.65,160.7 -3.83,206.61l-38.26 7.65 183.65 3.83 3.82 -49.74 -15.3 38.26c-26.78,3.83 -61.22,0 -88,-3.82l-3.83 -91.82c22.96,-7.65 49.74,-7.65 72.69,-3.83l11.48 26.78c3.82,-11.48 3.82,-53.57 0,-65.04l-7.65 26.78c-22.96,3.82 -53.57,3.82 -72.69,-3.83l0 -84.17c26.78,-7.65 57.39,-3.83 84.17,-3.83 3.83,7.65 7.65,30.61 15.31,34.44l-3.83 -42.08 -179.83 -3.83 42.09 7.65z"/>
  <path class="fil1" d="M1878.31 788.79l19.13 3.83c-7.65,-42.09 -3.82,-133.92 -3.82,-179.83 11.48,3.83 3.82,0 11.48,7.65 30.61,26.78 145.39,179.83 149.22,183.65l3.82 -221.91 -15.31 0 3.83 156.87c-19.13,-11.48 -68.87,-76.52 -88,-99.48 -45.91,-57.39 -38.26,-68.87 -72.69,-68.87 -15.31,0 -30.61,0 -45.92,3.82 49.74,15.31 45.92,22.96 45.92,84.17 0,38.26 0,95.65 -7.65,130.09z"/>
  <path class="fil1" d="M2303.01 318.18c7.65,34.44 7.65,172.17 -3.83,206.61 -3.82,3.83 0,0 -7.65,3.83 -3.82,0 -3.82,0 -7.65,3.82 -11.48,0 -15.31,0 -22.96,3.83l202.78 0c3.82,-15.31 11.48,-45.92 3.82,-57.39l-19.13 42.09c-38.26,7.65 -68.87,3.82 -103.3,-3.83 -3.83,-34.43 -7.65,-164.52 3.82,-195.13l22.96 -7.65c3.82,0 11.48,0 15.3,0l-126.26 -3.83 42.09 7.65z"/>
  <path class="fil1" d="M1809.44 360.27l15.31 -38.26c30.61,-3.82 53.57,-3.82 84.17,3.83 3.83,38.26 7.65,168.35 -3.82,198.95 -3.83,3.83 0,0 -7.65,3.83l57.39 0c-11.48,-34.44 -7.65,-164.52 -3.82,-202.78 30.61,-7.65 53.57,-7.65 84.18,-3.83l11.48 38.26 0 -49.74c-76.52,3.83 -156.87,3.83 -233.4,0l-3.82 49.74z"/>
  <path class="fil1" d="M2100.22 620.44c7.65,-34.44 7.65,-42.09 45.91,-38.26 0,0 15.31,0 19.13,0 15.31,7.65 7.65,3.82 11.48,7.65 7.65,22.95 3.82,172.17 0,202.78l38.26 -3.83c-7.65,-42.09 -11.48,-164.52 0,-198.95 19.13,-11.48 42.09,-11.48 65.04,-7.65l11.48 34.44 0 -45.91c-38.26,-3.83 -130.08,7.65 -191.3,0l0 45.91c0,0 0,0 0,0 0,0 0,3.82 0,3.82z"/>
  <path class="fil1" d="M2674.14 582.18c7.65,26.78 7.65,176 0,210.44l130.08 7.65 3.83 -53.57c0,0 0,-3.82 0,-3.82l-15.31 42.09c-26.78,3.82 -53.57,7.65 -84.17,-3.83 -3.83,-49.74 -3.83,-133.91 0,-183.65 3.82,-26.78 11.48,-15.31 34.44,-22.96l-103.31 -3.82 34.44 11.48z"/>
  <path class="fil1" d="M2333.61 792.62l38.26 -3.83c-7.65,-45.91 -7.65,-164.52 0,-206.61l34.43 -7.65 -103.3 -3.82c30.61,11.48 34.44,-11.48 34.44,91.82 0,38.26 3.82,95.65 -3.83,130.09z"/>
  <path class="fil0" d="M1663.32 89.25c26.77,35.7 44.63,26.78 62.48,53.55 8.92,26.78 -8.93,53.55 -8.93,89.25 133.88,-35.7 35.7,-53.55 187.43,0 -8.92,-35.7 -26.77,-62.48 -8.92,-89.25 17.85,-26.77 35.7,-26.77 62.48,-53.55 -26.78,-8.93 -71.4,-8.93 -98.18,-17.85 -17.85,-8.93 -17.85,-17.85 -26.77,-35.7 -8.93,-17.85 8.92,0 -8.93,-17.85 -17.85,-17.85 0,-8.92 -17.85,-17.85 -53.55,116.03 -53.55,53.55 -142.8,89.25z"/>
  <path class="fil0" d="M2002.48 89.25c17.85,17.85 53.55,44.63 71.4,53.55l-17.85 89.25c26.78,-8.92 71.4,-35.7 89.25,-35.7 35.7,0 71.4,26.78 98.17,35.7l-17.85 -89.25c17.85,-8.92 44.63,-17.85 62.48,-35.7 8.93,-26.78 8.93,0 0,-26.78 -133.87,-8.92 -71.4,-8.92 -133.87,-80.32 -17.86,17.85 -26.78,53.55 -44.63,62.48 -26.78,17.85 -80.33,17.85 -107.1,26.78z"/>
  <path class="fil0" d="M1315.24 89.25c17.85,17.85 62.48,44.63 71.4,53.55l-8.93 89.25c26.78,-8.92 62.48,-35.7 80.32,-35.7 35.7,0 71.4,26.78 98.18,35.7l-8.93 -89.25c8.93,-8.92 53.55,-35.7 62.48,-53.55 -160.65,-26.78 -80.32,-26.78 -142.8,-89.25 -80.32,80.32 8.92,62.48 -151.73,89.25z"/>
 </g>
</svg>
