<?xml version="1.0" encoding="UTF-8"?>
<!DOCTYPE svg PUBLIC "-//W3C//DTD SVG 1.1//EN" "http://www.w3.org/Graphics/SVG/1.1/DTD/svg11.dtd">
<!-- Creator: CorelDRAW 2020 (64-Bit Versión de evaluación) -->
<svg xmlns="http://www.w3.org/2000/svg" xml:space="preserve" width="90.625mm" height="11.6909mm" version="1.1" style="shape-rendering:geometricPrecision; text-rendering:geometricPrecision; image-rendering:optimizeQuality; fill-rule:evenodd; clip-rule:evenodd"
viewBox="0 0 5526.16 712.89"
 xmlns:xlink="http://www.w3.org/1999/xlink"
 xmlns:xodm="http://www.corel.com/coreldraw/odm/2003">
 <defs>
  <style type="text/css">
   <![CDATA[
    .fil1 {fill:#080808}
    .fil0 {fill:#F79421}
   ]]>
  </style>
 </defs>
 <g id="Capa_x0020_1">
  <metadata id="CorelCorpID_0Corel-Layer"/>
  <path class="fil0" d="M161.15 12.27c-37.92,56.88 28.44,18.96 -28.44,132.72 -9.48,37.92 -37.92,104.27 -56.87,132.71l18.96 18.96c0,0 0,0 9.48,9.48 9.48,9.48 18.96,9.48 28.43,18.96 0,18.96 -9.48,28.44 -18.96,37.92 -9.48,-47.4 18.96,-18.96 -28.44,-37.92 -9.48,66.36 -28.43,104.27 -37.92,170.63 -9.48,85.32 -28.44,94.8 -47.4,161.16l815.24 -0.01c0,-104.27 -113.75,-530.85 -151.67,-654.09l-47.4 37.92c0,0 0,-9.48 0,-9.48 -18.96,37.92 28.44,-47.4 -94.8,-28.44 -66.36,9.48 -56.87,9.48 -113.76,0 -18.96,0 -236.99,9.48 -246.47,9.48zm132.71 142.2l-56.87 322.31c-18.96,66.36 -66.36,47.4 -151.68,47.4l85.31 9.48c28.45,0.01 56.88,0.01 85.32,-9.48 56.87,0 104.27,0 161.15,0 236.99,18.96 104.27,37.92 322.3,28.44l18.96 47.4c9.48,-18.96 9.48,-18.96 9.48,-56.88 -37.92,-9.48 -85.31,0 -132.71,-9.48 -56.87,0 -66.36,0 -66.36,-56.88 37.92,9.48 0,0 37.92,18.96l37.92 -94.79c-85.31,-9.48 -28.44,-9.48 -66.36,37.92 -37.92,-28.44 -28.44,-227.51 -47.4,-284.39l-236.99 0z"/>
  <path class="fil1" d="M1489.83 376.88c-232.95,51.76 -155.3,352.02 93.18,300.25 232.96,-41.41 160.48,-352.02 -93.18,-300.25zm10.35 15.53c-155.3,46.59 -108.71,320.95 77.65,269.19 155.3,-41.42 103.54,-320.96 -77.65,-269.19z"/>
  <path class="fil1" d="M951.46 387.24c15.53,56.94 10.35,217.42 5.17,279.54l-46.59 15.53 165.65 0 -62.12 -10.35c-5.18,-41.41 -5.18,-93.18 -5.18,-134.59l217.42 0c5.18,46.59 5.18,82.83 -5.18,129.41 -15.53,10.35 -36.23,5.18 -56.94,15.53l165.65 0c-15.53,-10.35 -31.06,-5.18 -46.59,-15.53 -10.35,-129.41 -10.35,-139.77 0,-274.36l46.59 -10.35 -165.65 -5.18c10.35,5.18 51.76,10.35 56.94,15.53 10.35,31.06 15.53,98.35 5.18,129.41 -46.59,0 -181.18,15.53 -212.24,-5.18 -10.35,-20.71 -5.18,-98.36 0,-129.41l-62.12 0z"/>
  <path class="fil1" d="M2857.75 397.12c46.59,20.7 51.76,20.7 51.76,77.65 0,46.59 -5.18,176.01 -15.53,222.6l20.71 -5.18 15.53 -217.42 103.54 217.42c0,0 0,0 0,5.18l10.35 10.35c20.71,-31.06 93.18,-212.25 113.88,-232.95 15.53,36.23 15.53,160.48 10.35,217.42l-41.41 10.35 129.41 5.18c-36.23,-15.53 -36.23,0 -41.41,-41.42 -5.18,-56.94 -15.53,-207.06 -10.35,-253.66l46.59 -10.35 -77.65 -5.17c-15.53,25.88 -41.41,93.17 -51.76,124.24 -20.71,31.06 -51.77,88 -62.12,119.07 -5.18,-5.18 -5.18,0 -10.35,-10.35l-113.89 -227.78 -77.65 -5.17z"/>
  <path class="fil1" d="M4987.78 707.71l56.94 -15.53 25.89 -82.83 113.89 0c10.35,25.89 20.7,56.94 25.89,88l82.83 10.35c-46.59,-25.89 -31.06,-5.18 -51.77,-62.12 -25.88,-51.77 -82.83,-238.13 -103.54,-248.48 -10.35,5.18 -5.18,0 -15.53,10.35 0,5.18 -5.18,25.89 -5.18,25.89 -5.18,10.35 -10.35,25.89 -15.53,41.42l-77.66 207.06c-10.35,25.89 -15.53,10.35 -36.23,25.89zm93.18 -113.89l98.36 0c-5.18,-20.71 -41.42,-119.06 -56.94,-134.59 -10.35,25.88 -46.59,113.89 -41.42,134.59z"/>
  <path class="fil1" d="M3905.86 702.54l98.36 5.18 -46.59 -10.35 25.89 -88 119.06 0c10.35,25.89 20.71,56.94 25.89,88l77.65 10.35c-36.23,-15.53 -31.06,-20.71 -46.59,-62.12 -15.53,-25.89 -88,-238.13 -103.54,-248.48 -20.71,5.18 -31.06,56.94 -36.24,77.65 -10.35,25.88 -20.7,56.94 -31.06,88 -10.35,25.88 -20.71,51.76 -31.06,82.83 -15.53,46.59 -5.18,46.59 -51.76,56.94zm186.36 -108.71c5.18,-10.35 -15.53,-46.59 -20.7,-67.3 -10.35,-20.71 -15.53,-51.76 -31.06,-62.12 -15.53,20.7 -31.06,77.65 -41.41,103.54 -10.35,25.88 -10.35,25.88 20.7,31.06 20.71,0 56.95,0 72.47,-5.18z"/>
  <path class="fil1" d="M3255.43 707.71l56.95 -10.35c0,-31.06 15.53,-62.12 25.88,-88l113.89 0c15.53,25.89 25.89,56.94 25.89,88l82.83 10.35c-41.42,-25.89 -31.06,-10.35 -51.77,-62.12l-88 -232.96c-10.35,-20.7 0,-10.35 -15.53,-15.53 -25.88,15.53 -88,253.66 -108.71,289.89 -15.53,20.71 -15.53,5.18 -41.42,20.71zm93.18 -113.89l93.18 5.18c5.18,-31.06 -31.06,-113.88 -46.59,-134.59l-15.53 31.06c-5.18,10.35 -10.35,20.71 -15.53,31.06 -5.18,15.53 -20.71,51.76 -15.53,67.3z"/>
  <path class="fil1" d="M3553.84 402.29c10.35,0 25.88,5.18 31.06,10.35 5.18,0 15.53,5.18 15.53,5.18 20.71,15.53 15.53,25.89 15.53,77.65l-5.18 196.72 -41.42 10.35 108.71 5.18 -41.41 -10.35c-10.35,-46.59 -10.35,-207.07 -5.18,-243.3l217.42 258.83 0 -289.9c5.18,-20.71 20.71,-15.53 46.59,-20.71l-108.71 0c51.76,15.53 51.76,-20.7 46.59,176.01l0 46.59c-25.88,-10.35 -155.3,-181.18 -170.83,-212.25 -20.7,-25.88 -98.35,-15.53 -108.71,-10.35z"/>
  <path class="fil1" d="M2142.1 387.24c10.35,67.3 10.35,217.42 -5.18,279.54l-51.77 10.35 248.49 5.18 5.18 -67.3 -20.71 51.76c-36.24,5.18 -82.83,0 -119.07,-5.18l-5.18 -124.24c31.06,-10.35 67.3,-10.35 98.36,-5.18l15.53 36.24c5.18,-15.53 5.18,-72.48 0,-88l-10.35 36.23c-31.06,5.18 -72.47,5.18 -98.36,-5.18l0 -113.88c36.24,-10.35 77.65,-5.18 113.89,-5.18 5.18,10.35 10.35,41.41 20.71,46.59l-5.18 -56.94 -243.31 -5.18 56.95 10.35z"/>
  <path class="fil1" d="M4268.22 692.18l25.89 5.18c-10.35,-56.94 -5.18,-181.18 -5.18,-243.3 15.53,5.18 5.18,0 15.53,10.35 41.42,36.23 196.72,243.3 201.89,248.48l5.18 -300.25 -20.71 0 5.18 212.25c-25.89,-15.53 -93.18,-103.54 -119.07,-134.6 -62.12,-77.65 -51.76,-93.17 -98.36,-93.17 -20.7,0 -41.41,0 -62.12,5.17 67.3,20.71 62.12,31.06 62.12,113.89 0,51.77 0,129.42 -10.35,176.01z"/>
  <path class="fil1" d="M2416.46 387.24c10.35,46.59 10.35,232.95 -5.18,279.54 -5.18,5.18 0,0 -10.35,5.18 -5.18,0 -5.18,0 -10.35,5.18 -15.53,0 -20.71,0 -31.06,5.18l274.37 0c5.18,-20.71 15.53,-62.12 5.18,-77.65l-25.89 56.94c-51.76,10.35 -93.18,5.18 -139.77,-5.17 -5.18,-46.59 -10.35,-222.6 5.18,-264.01l31.06 -10.35c5.17,0 15.53,0 20.7,0l-170.83 -5.18 56.95 10.35z"/>
  <path class="fil1" d="M1748.66 444.18l20.71 -51.76c41.42,-5.18 72.47,-5.18 113.89,5.18 5.18,51.76 10.35,227.77 -5.18,269.18 -5.18,5.18 0,0 -10.35,5.18l77.65 0c-15.53,-46.59 -10.35,-222.6 -5.18,-274.36 41.42,-10.35 72.47,-10.35 113.89,-5.18l15.53 51.76 0 -67.3c-103.54,5.18 -212.25,5.18 -315.78,0l-5.18 67.3z"/>
  <path class="fil1" d="M4568.47 464.41c10.35,-46.59 10.35,-56.95 62.12,-51.77 0,0 20.71,0 25.89,0 20.71,10.35 10.35,5.18 15.53,10.35 10.35,31.06 5.18,232.96 0,274.37l51.76 -5.18c-10.35,-56.94 -15.53,-222.6 0,-269.19 25.89,-15.53 56.95,-15.53 88,-10.35l15.53 46.59 0 -62.12c-51.76,-5.18 -176.01,10.35 -258.83,0l0 62.12c0,0 0,0 0,0 0,0 0,5.18 0,5.18z"/>
  <path class="fil1" d="M5344.98 412.64c10.35,36.24 10.35,238.13 0,284.72l176.01 10.35 5.18 -72.47c0,0 0,-5.18 0,-5.18l-20.71 56.94c-36.23,5.18 -72.47,10.35 -113.89,-5.18 -5.17,-67.3 -5.17,-181.18 0,-248.48 5.18,-36.23 15.53,-20.71 46.59,-31.06l-139.77 -5.17 46.59 15.53z"/>
  <path class="fil1" d="M4884.25 697.36l51.77 -5.18c-10.35,-62.12 -10.35,-222.6 0,-279.54l46.59 -10.35 -139.77 -5.17c41.41,15.53 46.59,-15.53 46.59,124.24 0,51.76 5.18,129.42 -5.18,176.01z"/>
 </g>
</svg>
